<!-- Generator: Adobe Illustrator 16.0.3, SVG Export Plug-In . SVG Version: 6.00 Build 0)  -->
<svg version="1.1" id="Layer_1" xmlns="http://www.w3.org/2000/svg" xmlns:xlink="http://www.w3.org/1999/xlink" x="0px" y="0px"
	 width="841.89px" height="595.28px" viewBox="0 0 841.89 595.28" enable-background="new 0 0 841.89 595.28" xml:space="preserve">
<rect id="box" fill="#2C3E50" stroke="#000000" stroke-miterlimit="10" width="841.89" height="595.28"/>
<rect id="box_1_" x="33.904" y="23.972" fill="#F1F2F2" stroke="#000000" stroke-miterlimit="10" width="774.083" height="547.336"/>
<rect id="box_2_" x="64.479" y="45.591" fill="#35495E" stroke="#000000" stroke-miterlimit="10" width="712.931" height="504.098"/>
<rect x="84.474" y="69.842" fill="none" width="157.895" height="42.982"/>
<text transform="matrix(1 0 0 1 84.4736 103.3521)" fill="#FDFDFE" font-family="'Lato-Light', 'Lato', Helvetica, Arial, sans-serif" font-size="46">Jschool</text>
<rect x="203.239" y="196.315" fill="none" width="435.412" height="42.982"/>
<text transform="matrix(1 0 0 1 261.1738 223.2695)" fill="#FDFDFE" font-family="'Lato-Light', 'Lato', Helvetica, Arial, sans-serif" font-size="37">This is to certify that</text>
<rect x="64.479" y="254.658" fill="none" width="712.931" height="42.982"/>
<text id="name_label" style="text-anchor: middle; font-weight: 200;" transform="matrix(1 0 0 1 322.0454 284.1382)" fill="#FDFDFE" font-family="'Lato-Regular'" font-size="40">Your Name</text>
<rect x="209.239" y="326.298" fill="none" width="435.412" height="139.158"/>
<text transform="matrix(1 0 0 1 220.9893 353.252)"><tspan x="0" y="0" fill="#FDFDFE" font-family="'Lato-Light', 'Lato', Helvetica, Arial, sans-serif" font-size="37">has completed the Jschool </tspan><tspan x="42.494" y="44.4" fill="#FDFDFE" font-family="'Lato-Light', 'Lato', Helvetica, Arial, sans-serif" font-size="37">tutorials in front-end </tspan><tspan x="13.92" y="88.8" fill="#FDFDFE" font-family="'Lato-Light', 'Lato', Helvetica, Arial, sans-serif" font-size="37">JavaScript development.</tspan></text>
<rect x="64.479" y="518.965" fill="none" width="712.931" height="30.725"/>
<text id="date_label" style="text-anchor: middle; font-weight: 200;" transform="matrix(1 0 0 1 367.0859 533.7051)" fill="#FDFDFE" font-family="'Lato-Regular'" font-size="20">22/04/2016</text>
</svg>
